{
    "accessors" : [
        {
            "bufferView" : 0, 
            "componentType" : 5123, 
            "count" : 89511, 
            "max" : [
                25718
            ], 
            "min" : [
                0
            ], 
            "type" : "SCALAR"
        }, 
        {
            "bufferView" : 1, 
            "componentType" : 5126, 
            "count" : 25719, 
            "max" : [
                0.4171368181705475, 
                3.2195000648498535, 
                0.6146373152732849
            ], 
            "min" : [
                -1.950327754020691, 
                0.03234640508890152, 
                -1.61884605884552
            ], 
            "type" : "VEC3"
        }, 
        {
            "bufferView" : 2, 
            "componentType" : 5126, 
            "count" : 25719, 
            "max" : [
                0.9998779296875, 
                0.9998779296875, 
                0.999969482421875
            ], 
            "min" : [
                -0.999847412109375, 
                -0.999847412109375, 
                -0.999969482421875
            ], 
            "type" : "VEC3"
        }, 
        {
            "bufferView" : 3, 
            "componentType" : 5126, 
            "count" : 25719, 
            "max" : [
                1.0002222061157227, 
                0.9828734956681728
            ], 
            "min" : [
                -0.0010397011647000909, 
                0.0002071857452392578
            ], 
            "type" : "VEC2"
        }
    ], 
    "asset" : {
        "generator" : "Khronos Blender glTF 2.0 exporter", 
        "version" : "2.0"
    }, 
    "bufferViews" : [
        {
            "buffer" : 0, 
            "byteLength" : 179022, 
            "byteOffset" : 0, 
            "target" : 34963
        }, 
        {
            "buffer" : 0, 
            "byteLength" : 308628, 
            "byteOffset" : 179024, 
            "target" : 34962
        }, 
        {
            "buffer" : 0, 
            "byteLength" : 308628, 
            "byteOffset" : 487652, 
            "target" : 34962
        }, 
        {
            "buffer" : 0, 
            "byteLength" : 205752, 
            "byteOffset" : 796280, 
            "target" : 34962
        }
    ], 
    "buffers" : [
        {
            "byteLength" : 1002032, 
            "uri" : "chair.bin"
        }
    ], 
    "extensionsRequired" : [
        "KHR_materials_pbrSpecularGlossiness"
    ], 
    "extensionsUsed" : [
        "KHR_materials_pbrSpecularGlossiness"
    ], 
    "images" : [
        {
            "uri" : "cheeseColor.png"
        }
    ], 
    "materials" : [
        {
            "extensions" : {
                "KHR_materials_pbrSpecularGlossiness" : {
                    "diffuseTexture" : {
                        "index" : 0
                    }
                }
            }, 
            "name" : "Cheese"
        }
    ], 
    "meshes" : [
        {
            "name" : "Circle", 
            "primitives" : [
                {
                    "attributes" : {
                        "NORMAL" : 2, 
                        "POSITION" : 1, 
                        "TEXCOORD_0" : 3
                    }, 
                    "indices" : 0, 
                    "material" : 0
                }
            ]
        }
    ], 
    "nodes" : [
        {
            "mesh" : 0, 
            "name" : "Circle", 
            "rotation" : [
                -0.17013947665691376, 
                0.4689478576183319, 
                0.09258948266506195, 
                0.8617236614227295
            ], 
            "scale" : [
                0.8200523257255554, 
                0.8200523853302002, 
                0.8200523257255554
            ], 
            "translation" : [
                0.8857651352882385, 
                -0.04700660705566406, 
                -0.065096914768219
            ]
        }
    ], 
    "samplers" : [
        {}
    ], 
    "scene" : 0, 
    "scenes" : [
        {
            "name" : "Scene", 
            "nodes" : [
                0
            ]
        }
    ], 
    "textures" : [
        {
            "sampler" : 0, 
            "source" : 0
        }
    ]
}
