{
    "accessors" : [
        {
            "bufferView" : 0, 
            "componentType" : 5123, 
            "count" : 62247, 
            "max" : [
                16268
            ], 
            "min" : [
                0
            ], 
            "type" : "SCALAR"
        }, 
        {
            "bufferView" : 1, 
            "componentType" : 5126, 
            "count" : 16269, 
            "max" : [
                12.672283172607422, 
                8.270099639892578, 
                11.36147689819336
            ], 
            "min" : [
                -13.340055465698242, 
                -4.383056163787842, 
                -14.119993209838867
            ], 
            "type" : "VEC3"
        }, 
        {
            "bufferView" : 2, 
            "componentType" : 5126, 
            "count" : 16269, 
            "max" : [
                0.999847412109375, 
                0.999908447265625, 
                0.999755859375
            ], 
            "min" : [
                -0.99993896484375, 
                -0.999969482421875, 
                -0.9998779296875
            ], 
            "type" : "VEC3"
        }
    ], 
    "asset" : {
        "generator" : "Khronos Blender glTF 2.0 exporter", 
        "version" : "2.0"
    }, 
    "bufferViews" : [
        {
            "buffer" : 0, 
            "byteLength" : 124494, 
            "byteOffset" : 0, 
            "target" : 34963
        }, 
        {
            "buffer" : 0, 
            "byteLength" : 195228, 
            "byteOffset" : 124496, 
            "target" : 34962
        }, 
        {
            "buffer" : 0, 
            "byteLength" : 195228, 
            "byteOffset" : 319724, 
            "target" : 34962
        }
    ], 
    "buffers" : [
        {
            "byteLength" : 514952, 
            "uri" : "cheesechair_seat.bin"
        }
    ], 
    "meshes" : [
        {
            "name" : "SEAT.001", 
            "primitives" : [
                {
                    "attributes" : {
                        "NORMAL" : 2, 
                        "POSITION" : 1
                    }, 
                    "indices" : 0
                }
            ]
        }
    ], 
    "nodes" : [
        {
            "mesh" : 0, 
            "name" : "SEAT.001", 
            "rotation" : [
                0.4772902727127075, 
                -0.04789372906088829, 
                0.877052366733551, 
                0.026063352823257446
            ], 
            "scale" : [
                0.07417922466993332, 
                0.07417922466993332, 
                0.07417922466993332
            ], 
            "translation" : [
                -0.06448012590408325, 
                3.2014095783233643, 
                0.10560283064842224
            ]
        }
    ], 
    "scene" : 0, 
    "scenes" : [
        {
            "name" : "Scene", 
            "nodes" : [
                0
            ]
        }
    ]
}
