{
    "accessors" : [
        {
            "bufferView" : 0, 
            "componentType" : 5123, 
            "count" : 62247, 
            "max" : [
                16268
            ], 
            "min" : [
                0
            ], 
            "type" : "SCALAR"
        }, 
        {
            "bufferView" : 1, 
            "componentType" : 5126, 
            "count" : 16269, 
            "max" : [
                12.672283172607422, 
                8.270099639892578, 
                11.36147689819336
            ], 
            "min" : [
                -13.340055465698242, 
                -4.383056163787842, 
                -14.119993209838867
            ], 
            "type" : "VEC3"
        }, 
        {
            "bufferView" : 2, 
            "componentType" : 5126, 
            "count" : 16269, 
            "max" : [
                0.999847412109375, 
                0.999908447265625, 
                0.999755859375
            ], 
            "min" : [
                -0.99993896484375, 
                -0.999969482421875, 
                -0.9998779296875
            ], 
            "type" : "VEC3"
        }, 
        {
            "bufferView" : 3, 
            "componentType" : 5121, 
            "count" : 564, 
            "max" : [
                95
            ], 
            "min" : [
                0
            ], 
            "type" : "SCALAR"
        }, 
        {
            "bufferView" : 4, 
            "componentType" : 5126, 
            "count" : 96, 
            "max" : [
                1.0, 
                1.0, 
                1.0
            ], 
            "min" : [
                -1.0, 
                -1.0, 
                -1.0
            ], 
            "type" : "VEC3"
        }, 
        {
            "bufferView" : 5, 
            "componentType" : 5126, 
            "count" : 96, 
            "max" : [
                0.983031690120697, 
                0.983031690120697, 
                0.983031690120697
            ], 
            "min" : [
                -0.983031690120697, 
                -0.983031690120697, 
                -0.983031690120697
            ], 
            "type" : "VEC3"
        }, 
        {
            "bufferView" : 6, 
            "componentType" : 5123, 
            "count" : 8454, 
            "max" : [
                2380
            ], 
            "min" : [
                0
            ], 
            "type" : "SCALAR"
        }, 
        {
            "bufferView" : 7, 
            "componentType" : 5126, 
            "count" : 2381, 
            "max" : [
                0.1668568104505539, 
                1.752874493598938, 
                0.19972240924835205
            ], 
            "min" : [
                -1.7793292999267578, 
                0.03234640508890152, 
                -1.61884605884552
            ], 
            "type" : "VEC3"
        }, 
        {
            "bufferView" : 8, 
            "componentType" : 5126, 
            "count" : 2381, 
            "max" : [
                0.9998779296875, 
                0.9978637099266052, 
                0.999603271484375
            ], 
            "min" : [
                -0.9934995770454407, 
                -0.9979857802391052, 
                -0.9988707900047302
            ], 
            "type" : "VEC3"
        }
    ], 
    "asset" : {
        "generator" : "Khronos Blender glTF 2.0 exporter", 
        "version" : "2.0"
    }, 
    "bufferViews" : [
        {
            "buffer" : 0, 
            "byteLength" : 124494, 
            "byteOffset" : 0, 
            "target" : 34963
        }, 
        {
            "buffer" : 0, 
            "byteLength" : 195228, 
            "byteOffset" : 124496, 
            "target" : 34962
        }, 
        {
            "buffer" : 0, 
            "byteLength" : 195228, 
            "byteOffset" : 319724, 
            "target" : 34962
        }, 
        {
            "buffer" : 0, 
            "byteLength" : 564, 
            "byteOffset" : 514952, 
            "target" : 34963
        }, 
        {
            "buffer" : 0, 
            "byteLength" : 1152, 
            "byteOffset" : 515516, 
            "target" : 34962
        }, 
        {
            "buffer" : 0, 
            "byteLength" : 1152, 
            "byteOffset" : 516668, 
            "target" : 34962
        }, 
        {
            "buffer" : 0, 
            "byteLength" : 16908, 
            "byteOffset" : 517820, 
            "target" : 34963
        }, 
        {
            "buffer" : 0, 
            "byteLength" : 28572, 
            "byteOffset" : 534728, 
            "target" : 34962
        }, 
        {
            "buffer" : 0, 
            "byteLength" : 28572, 
            "byteOffset" : 563300, 
            "target" : 34962
        }
    ], 
    "buffers" : [
        {
            "byteLength" : 591872, 
            "uri" : "cheesechair.bin"
        }
    ], 
    "extensionsRequired" : [
        "KHR_materials_pbrSpecularGlossiness"
    ], 
    "extensionsUsed" : [
        "KHR_materials_pbrSpecularGlossiness"
    ], 
    "materials" : [
        {
            "extensions" : {
                "KHR_materials_pbrSpecularGlossiness" : {}
            }, 
            "name" : "podium"
        }, 
        {
            "extensions" : {
                "KHR_materials_pbrSpecularGlossiness" : {}
            }, 
            "name" : "stringcheese"
        }, 
        {
            "extensions" : {
                "KHR_materials_pbrSpecularGlossiness" : {}
            }, 
            "name" : "swisscheese"
        }
    ], 
    "meshes" : [
        {
            "name" : "SEAT.001", 
            "primitives" : [
                {
                    "attributes" : {
                        "NORMAL" : 2, 
                        "POSITION" : 1
                    }, 
                    "indices" : 0, 
                    "material" : 2
                }
            ]
        }, 
        {
            "name" : "Cube", 
            "primitives" : [
                {
                    "attributes" : {
                        "NORMAL" : 5, 
                        "POSITION" : 4
                    }, 
                    "indices" : 3, 
                    "material" : 0
                }
            ]
        }, 
        {
            "name" : "Circle", 
            "primitives" : [
                {
                    "attributes" : {
                        "NORMAL" : 8, 
                        "POSITION" : 7
                    }, 
                    "indices" : 6, 
                    "material" : 1
                }
            ]
        }
    ], 
    "nodes" : [
        {
            "mesh" : 2, 
            "name" : "Circle", 
            "rotation" : [
                -0.17013947665691376, 
                0.4689478576183319, 
                0.09258948266506195, 
                0.8617236614227295
            ], 
            "scale" : [
                0.8200523257255554, 
                0.8200523853302002, 
                0.8200523257255554
            ], 
            "translation" : [
                0.8857651352882385, 
                1.4819295406341553, 
                -0.065096914768219
            ]
        }, 
        {
            "mesh" : 1, 
            "name" : "Cube", 
            "rotation" : [
                0.0, 
                0.20909230411052704, 
                -0.0, 
                0.9778959155082703
            ], 
            "scale" : [
                1.259033203125, 
                1.259033203125, 
                1.259033203125
            ], 
            "translation" : [
                0.0015810728073120117, 
                0.2969532012939453, 
                0.031210575252771378
            ]
        }, 
        {
            "mesh" : 0, 
            "name" : "SEAT.001", 
            "rotation" : [
                0.4772902727127075, 
                -0.04789372906088829, 
                0.877052366733551, 
                0.026063352823257446
            ], 
            "scale" : [
                0.07417922466993332, 
                0.07417922466993332, 
                0.07417922466993332
            ], 
            "translation" : [
                -0.06448012590408325, 
                3.2014095783233643, 
                0.10560283064842224
            ]
        }
    ], 
    "scene" : 0, 
    "scenes" : [
        {
            "name" : "Scene", 
            "nodes" : [
                1, 
                0, 
                2
            ]
        }
    ]
}
