{
    "accessors" : [
        {
            "bufferView" : 0, 
            "componentType" : 5123, 
            "count" : 8172, 
            "max" : [
                1363
            ], 
            "min" : [
                0
            ], 
            "type" : "SCALAR"
        }, 
        {
            "bufferView" : 1, 
            "componentType" : 5126, 
            "count" : 1364, 
            "max" : [
                12.712689399719238, 
                8.289322853088379, 
                11.505847930908203
            ], 
            "min" : [
                -12.712691307067871, 
                -6.3070220947265625, 
                -12.969587326049805
            ], 
            "type" : "VEC3"
        }, 
        {
            "bufferView" : 2, 
            "componentType" : 5126, 
            "count" : 1364, 
            "max" : [
                0.9961546659469604, 
                0.9991455078125, 
                0.963988184928894
            ], 
            "min" : [
                -0.9961546659469604, 
                -0.999114990234375, 
                -0.9862971901893616
            ], 
            "type" : "VEC3"
        }, 
        {
            "bufferView" : 3, 
            "componentType" : 5121, 
            "count" : 12, 
            "max" : [
                7
            ], 
            "min" : [
                0
            ], 
            "type" : "SCALAR"
        }, 
        {
            "bufferView" : 4, 
            "componentType" : 5126, 
            "count" : 8, 
            "max" : [
                1.0, 
                0.9503878951072693, 
                1.0
            ], 
            "min" : [
                -1.0, 
                0.0, 
                -1.0
            ], 
            "type" : "VEC3"
        }, 
        {
            "bufferView" : 5, 
            "componentType" : 5126, 
            "count" : 8, 
            "max" : [
                0.0, 
                1.0, 
                1.0
            ], 
            "min" : [
                0.0, 
                -0.0, 
                -0.0
            ], 
            "type" : "VEC3"
        }, 
        {
            "bufferView" : 6, 
            "componentType" : 5123, 
            "count" : 89511, 
            "max" : [
                25718
            ], 
            "min" : [
                0
            ], 
            "type" : "SCALAR"
        }, 
        {
            "bufferView" : 7, 
            "componentType" : 5126, 
            "count" : 25719, 
            "max" : [
                0.4171368181705475, 
                3.2195000648498535, 
                0.6146373152732849
            ], 
            "min" : [
                -1.950327754020691, 
                0.03234640508890152, 
                -1.61884605884552
            ], 
            "type" : "VEC3"
        }, 
        {
            "bufferView" : 8, 
            "componentType" : 5126, 
            "count" : 25719, 
            "max" : [
                0.9998779296875, 
                0.9998779296875, 
                0.999969482421875
            ], 
            "min" : [
                -0.999847412109375, 
                -0.999847412109375, 
                -0.999969482421875
            ], 
            "type" : "VEC3"
        }, 
        {
            "bufferView" : 9, 
            "componentType" : 5126, 
            "count" : 25719, 
            "max" : [
                1.0002222061157227, 
                0.9828734956681728
            ], 
            "min" : [
                -0.0010397011647000909, 
                0.0002071857452392578
            ], 
            "type" : "VEC2"
        }
    ], 
    "asset" : {
        "generator" : "Khronos Blender glTF 2.0 exporter", 
        "version" : "2.0"
    }, 
    "bufferViews" : [
        {
            "buffer" : 0, 
            "byteLength" : 16344, 
            "byteOffset" : 0, 
            "target" : 34963
        }, 
        {
            "buffer" : 0, 
            "byteLength" : 16368, 
            "byteOffset" : 16344, 
            "target" : 34962
        }, 
        {
            "buffer" : 0, 
            "byteLength" : 16368, 
            "byteOffset" : 32712, 
            "target" : 34962
        }, 
        {
            "buffer" : 0, 
            "byteLength" : 12, 
            "byteOffset" : 49080, 
            "target" : 34963
        }, 
        {
            "buffer" : 0, 
            "byteLength" : 96, 
            "byteOffset" : 49092, 
            "target" : 34962
        }, 
        {
            "buffer" : 0, 
            "byteLength" : 96, 
            "byteOffset" : 49188, 
            "target" : 34962
        }, 
        {
            "buffer" : 0, 
            "byteLength" : 179022, 
            "byteOffset" : 49284, 
            "target" : 34963
        }, 
        {
            "buffer" : 0, 
            "byteLength" : 308628, 
            "byteOffset" : 228308, 
            "target" : 34962
        }, 
        {
            "buffer" : 0, 
            "byteLength" : 308628, 
            "byteOffset" : 536936, 
            "target" : 34962
        }, 
        {
            "buffer" : 0, 
            "byteLength" : 205752, 
            "byteOffset" : 845564, 
            "target" : 34962
        }
    ], 
    "buffers" : [
        {
            "byteLength" : 1051316, 
            "uri" : "cheesechair.bin"
        }
    ], 
    "extensionsRequired" : [
        "KHR_materials_pbrSpecularGlossiness"
    ], 
    "extensionsUsed" : [
        "KHR_materials_pbrSpecularGlossiness"
    ], 
    "images" : [
        {
            "uri" : "cheeseColor.png"
        }
    ], 
    "materials" : [
        {
            "extensions" : {
                "KHR_materials_pbrSpecularGlossiness" : {
                    "diffuseTexture" : {
                        "index" : 0
                    }
                }
            }, 
            "name" : "Cheese"
        }
    ], 
    "meshes" : [
        {
            "name" : "SEAT.000", 
            "primitives" : [
                {
                    "attributes" : {
                        "NORMAL" : 2, 
                        "POSITION" : 1
                    }, 
                    "indices" : 0
                }
            ]
        }, 
        {
            "name" : "Plane.001", 
            "primitives" : [
                {
                    "attributes" : {
                        "NORMAL" : 5, 
                        "POSITION" : 4
                    }, 
                    "indices" : 3
                }
            ]
        }, 
        {
            "name" : "Circle", 
            "primitives" : [
                {
                    "attributes" : {
                        "NORMAL" : 8, 
                        "POSITION" : 7, 
                        "TEXCOORD_0" : 9
                    }, 
                    "indices" : 6, 
                    "material" : 0
                }
            ]
        }
    ], 
    "nodes" : [
        {
            "mesh" : 2, 
            "name" : "Circle", 
            "rotation" : [
                -0.17013947665691376, 
                0.4689478576183319, 
                0.09258948266506195, 
                0.8617236614227295
            ], 
            "scale" : [
                0.8200523257255554, 
                0.8200523853302002, 
                0.8200523257255554
            ], 
            "translation" : [
                0.8857651352882385, 
                -0.04700660705566406, 
                -0.065096914768219
            ]
        }, 
        {
            "mesh" : 1, 
            "name" : "Plane.001", 
            "rotation" : [
                0.0, 
                0.17137570679187775, 
                -0.0, 
                0.9852057695388794
            ], 
            "scale" : [
                9.302559852600098, 
                9.302559852600098, 
                9.302559852600098
            ], 
            "translation" : [
                1.250855803489685, 
                -2.368664264678955, 
                0.9720227718353271
            ]
        }, 
        {
            "mesh" : 0, 
            "name" : "SEAT.000", 
            "rotation" : [
                -2.826775755693234e-07, 
                0.054526496678590775, 
                -0.998512327671051, 
                2.3304678187230365e-09
            ], 
            "scale" : [
                0.10000000149011612, 
                0.10000000149011612, 
                0.10000000149011612
            ]
        }
    ], 
    "samplers" : [
        {}
    ], 
    "scene" : 0, 
    "scenes" : [
        {
            "name" : "Scene", 
            "nodes" : [
                1, 
                2, 
                0
            ]
        }
    ], 
    "textures" : [
        {
            "sampler" : 0, 
            "source" : 0
        }
    ]
}
