{
    "accessors" : [
        {
            "bufferView" : 0, 
            "componentType" : 5123, 
            "count" : 28566, 
            "max" : [
                4826
            ], 
            "min" : [
                0
            ], 
            "type" : "SCALAR"
        }, 
        {
            "bufferView" : 1, 
            "componentType" : 5126, 
            "count" : 4827, 
            "max" : [
                1.7997503280639648, 
                0.13043734431266785, 
                0.733624279499054
            ], 
            "min" : [
                -4.563950061798096, 
                -0.8163409233093262, 
                -1.7452841997146606
            ], 
            "type" : "VEC3"
        }, 
        {
            "bufferView" : 2, 
            "componentType" : 5126, 
            "count" : 4827, 
            "max" : [
                1.0, 
                1.0, 
                1.0
            ], 
            "min" : [
                -1.0, 
                -1.0, 
                -1.0
            ], 
            "type" : "VEC3"
        }, 
        {
            "bufferView" : 3, 
            "componentType" : 5126, 
            "count" : 4827, 
            "max" : [
                1.0073823928833008, 
                1.0
            ], 
            "min" : [
                -0.022147059440612793, 
                0.0
            ], 
            "type" : "VEC2"
        }
    ], 
    "asset" : {
        "generator" : "Khronos Blender glTF 2.0 exporter", 
        "version" : "2.0"
    }, 
    "bufferViews" : [
        {
            "buffer" : 0, 
            "byteLength" : 57132, 
            "byteOffset" : 0, 
            "target" : 34963
        }, 
        {
            "buffer" : 0, 
            "byteLength" : 57924, 
            "byteOffset" : 57132, 
            "target" : 34962
        }, 
        {
            "buffer" : 0, 
            "byteLength" : 57924, 
            "byteOffset" : 115056, 
            "target" : 34962
        }, 
        {
            "buffer" : 0, 
            "byteLength" : 38616, 
            "byteOffset" : 172980, 
            "target" : 34962
        }
    ], 
    "buffers" : [
        {
            "byteLength" : 211596, 
            "uri" : "clippy.bin"
        }
    ], 
    "extensionsRequired" : [
        "KHR_materials_pbrSpecularGlossiness"
    ], 
    "extensionsUsed" : [
        "KHR_materials_pbrSpecularGlossiness"
    ], 
    "images" : [
        {
            "uri" : "Clippy_Metalmap.png"
        }, 
        {
            "uri" : "Clippy_Color.png"
        }
    ], 
    "materials" : [
        {
            "extensions" : {
                "KHR_materials_pbrSpecularGlossiness" : {
                    "diffuseTexture" : {
                        "index" : 1
                    }, 
                    "glossinessFactor" : 0.844897985458374
                }
            }, 
            "name" : "clippy"
        }
    ], 
    "meshes" : [
        {
            "name" : "CUBezierCurve", 
            "primitives" : [
                {
                    "attributes" : {
                        "NORMAL" : 2, 
                        "POSITION" : 1, 
                        "TEXCOORD_0" : 3
                    }, 
                    "indices" : 0, 
                    "material" : 0
                }
            ]
        }
    ], 
    "nodes" : [
        {
            "mesh" : 0, 
            "name" : "BezierCurve", 
            "rotation" : [
                -0.5000001192092896, 
                0.5000000596046448, 
                -0.49999988079071045, 
                0.4999999403953552
            ]
        }
    ], 
    "samplers" : [
        {}
    ], 
    "scene" : 0, 
    "scenes" : [
        {
            "name" : "Scene", 
            "nodes" : [
                0
            ]
        }
    ], 
    "textures" : [
        {
            "sampler" : 0, 
            "source" : 0
        }, 
        {
            "sampler" : 0, 
            "source" : 1
        }
    ]
}
