{
    "accessors" : [
        {
            "bufferView" : 0, 
            "componentType" : 5123, 
            "count" : 5748, 
            "max" : [
                1186
            ], 
            "min" : [
                0
            ], 
            "type" : "SCALAR"
        }, 
        {
            "bufferView" : 1, 
            "componentType" : 5126, 
            "count" : 1187, 
            "max" : [
                0.9482700228691101, 
                0.9883753061294556, 
                0.9856160879135132
            ], 
            "min" : [
                -0.9482699632644653, 
                -0.9883752465248108, 
                -0.9856160283088684
            ], 
            "type" : "VEC3"
        }, 
        {
            "bufferView" : 2, 
            "componentType" : 5126, 
            "count" : 1187, 
            "max" : [
                0.9981688857078552, 
                0.9935911297798157, 
                0.9929502010345459
            ], 
            "min" : [
                -0.9981688857078552, 
                -0.9935911297798157, 
                -0.9929502010345459
            ], 
            "type" : "VEC3"
        }, 
        {
            "bufferView" : 3, 
            "componentType" : 5126, 
            "count" : 1187, 
            "max" : [
                1.3761188983917236, 
                1.4994906783103943
            ], 
            "min" : [
                -0.4583667516708374, 
                -0.49949073791503906
            ], 
            "type" : "VEC2"
        }
    ], 
    "asset" : {
        "generator" : "Khronos Blender glTF 2.0 exporter", 
        "version" : "2.0"
    }, 
    "bufferViews" : [
        {
            "buffer" : 0, 
            "byteLength" : 11496, 
            "byteOffset" : 0, 
            "target" : 34963
        }, 
        {
            "buffer" : 0, 
            "byteLength" : 14244, 
            "byteOffset" : 11496, 
            "target" : 34962
        }, 
        {
            "buffer" : 0, 
            "byteLength" : 14244, 
            "byteOffset" : 25740, 
            "target" : 34962
        }, 
        {
            "buffer" : 0, 
            "byteLength" : 9496, 
            "byteOffset" : 39984, 
            "target" : 34962
        }
    ], 
    "buffers" : [
        {
            "byteLength" : 49480, 
            "uri" : "sandball.bin"
        }
    ], 
    "extensionsRequired" : [
        "KHR_materials_pbrSpecularGlossiness"
    ], 
    "extensionsUsed" : [
        "KHR_materials_pbrSpecularGlossiness"
    ], 
    "images" : [
        {
            "uri" : "Sand_color.png"
        }, 
        {
            "uri" : "Sand_normal.png"
        }
    ], 
    "materials" : [
        {
            "extensions" : {
                "KHR_materials_pbrSpecularGlossiness" : {
                    "diffuseTexture" : {
                        "index" : 0
                    }, 
                    "glossinessFactor" : 0.4938775300979614
                }
            }, 
            "name" : "YellowPlastic", 
            "normalTexture" : {
                "index" : 1
            }
        }
    ], 
    "meshes" : [
        {
            "name" : "Icosphere", 
            "primitives" : [
                {
                    "attributes" : {
                        "NORMAL" : 2, 
                        "POSITION" : 1, 
                        "TEXCOORD_0" : 3
                    }, 
                    "indices" : 0, 
                    "material" : 0
                }
            ]
        }
    ], 
    "nodes" : [
        {
            "mesh" : 0, 
            "name" : "Icosphere", 
            "scale" : [
                0.5, 
                0.5, 
                0.5
            ], 
            "translation" : [
                0.0, 
                1.939758539199829, 
                -0.0
            ]
        }
    ], 
    "samplers" : [
        {}
    ], 
    "scene" : 0, 
    "scenes" : [
        {
            "name" : "Scene", 
            "nodes" : [
                0
            ]
        }
    ], 
    "textures" : [
        {
            "sampler" : 0, 
            "source" : 0
        }, 
        {
            "sampler" : 0, 
            "source" : 1
        }
    ]
}
