{
    "accessors" : [
        {
            "bufferView" : 0, 
            "componentType" : 5123, 
            "count" : 23040, 
            "max" : [
                4859
            ], 
            "min" : [
                0
            ], 
            "type" : "SCALAR"
        }, 
        {
            "bufferView" : 1, 
            "componentType" : 5126, 
            "count" : 4860, 
            "max" : [
                0.7091474533081055, 
                0.7383431196212769, 
                -0.45109882950782776
            ], 
            "min" : [
                -0.7091474533081055, 
                0.3248100280761719, 
                -0.883398711681366
            ], 
            "type" : "VEC3"
        }, 
        {
            "bufferView" : 2, 
            "componentType" : 5126, 
            "count" : 4860, 
            "max" : [
                0.9980468153953552, 
                0.99957275390625, 
                0.6240730285644531
            ], 
            "min" : [
                -0.9980468153953552, 
                -0.9017304182052612, 
                -0.999176025390625
            ], 
            "type" : "VEC3"
        }, 
        {
            "bufferView" : 3, 
            "componentType" : 5126, 
            "count" : 4860, 
            "max" : [
                0.948150098323822, 
                0.9991821050643921, 
                0.9995999336242676, 
                1.0
            ], 
            "min" : [
                -1.0, 
                -0.999935507774353, 
                -0.9992371797561646, 
                1.0
            ], 
            "type" : "VEC4"
        }, 
        {
            "bufferView" : 4, 
            "componentType" : 5126, 
            "count" : 4860, 
            "max" : [
                1.0, 
                1.0
            ], 
            "min" : [
                0.0, 
                0.0
            ], 
            "type" : "VEC2"
        }, 
        {
            "bufferView" : 5, 
            "componentType" : 5126, 
            "count" : 4860, 
            "max" : [
                1.0, 
                1.0
            ], 
            "min" : [
                0.0, 
                0.0
            ], 
            "type" : "VEC2"
        }, 
        {
            "bufferView" : 6, 
            "componentType" : 5123, 
            "count" : 165120, 
            "max" : [
                28622
            ], 
            "min" : [
                0
            ], 
            "type" : "SCALAR"
        }, 
        {
            "bufferView" : 7, 
            "componentType" : 5126, 
            "count" : 28623, 
            "max" : [
                0.7559050917625427, 
                1.0277416706085205, 
                0.7137066125869751
            ], 
            "min" : [
                -0.7559051513671875, 
                -0.6460410356521606, 
                -0.8878219723701477
            ], 
            "type" : "VEC3"
        }, 
        {
            "bufferView" : 8, 
            "componentType" : 5126, 
            "count" : 28623, 
            "max" : [
                0.999969482421875, 
                0.99993896484375, 
                1.0
            ], 
            "min" : [
                -0.999969482421875, 
                -0.99993896484375, 
                -1.0
            ], 
            "type" : "VEC3"
        }, 
        {
            "bufferView" : 9, 
            "componentType" : 5126, 
            "count" : 28623, 
            "max" : [
                0.9999939203262329, 
                0.9986939430236816, 
                0.9998495578765869, 
                1.0
            ], 
            "min" : [
                -0.9999962449073792, 
                -0.9998654723167419, 
                -0.9991999864578247, 
                1.0
            ], 
            "type" : "VEC4"
        }, 
        {
            "bufferView" : 10, 
            "componentType" : 5126, 
            "count" : 28623, 
            "max" : [
                1.2668334245681763, 
                1.0
            ], 
            "min" : [
                0.0, 
                -0.08370316028594971
            ], 
            "type" : "VEC2"
        }, 
        {
            "bufferView" : 11, 
            "componentType" : 5126, 
            "count" : 28623, 
            "max" : [
                1.9515881538391113, 
                1.0275179147720337
            ], 
            "min" : [
                -1.1322736740112305, 
                -0.5851747989654541
            ], 
            "type" : "VEC2"
        }
    ], 
    "asset" : {
        "generator" : "Khronos Blender glTF 2.0 exporter", 
        "version" : "2.0"
    }, 
    "bufferViews" : [
        {
            "buffer" : 0, 
            "byteLength" : 46080, 
            "byteOffset" : 0, 
            "target" : 34963
        }, 
        {
            "buffer" : 0, 
            "byteLength" : 58320, 
            "byteOffset" : 46080, 
            "target" : 34962
        }, 
        {
            "buffer" : 0, 
            "byteLength" : 58320, 
            "byteOffset" : 104400, 
            "target" : 34962
        }, 
        {
            "buffer" : 0, 
            "byteLength" : 77760, 
            "byteOffset" : 162720, 
            "target" : 34962
        }, 
        {
            "buffer" : 0, 
            "byteLength" : 38880, 
            "byteOffset" : 240480, 
            "target" : 34962
        }, 
        {
            "buffer" : 0, 
            "byteLength" : 38880, 
            "byteOffset" : 279360, 
            "target" : 34962
        }, 
        {
            "buffer" : 0, 
            "byteLength" : 330240, 
            "byteOffset" : 318240, 
            "target" : 34963
        }, 
        {
            "buffer" : 0, 
            "byteLength" : 343476, 
            "byteOffset" : 648480, 
            "target" : 34962
        }, 
        {
            "buffer" : 0, 
            "byteLength" : 343476, 
            "byteOffset" : 991956, 
            "target" : 34962
        }, 
        {
            "buffer" : 0, 
            "byteLength" : 457968, 
            "byteOffset" : 1335432, 
            "target" : 34962
        }, 
        {
            "buffer" : 0, 
            "byteLength" : 228984, 
            "byteOffset" : 1793400, 
            "target" : 34962
        }, 
        {
            "buffer" : 0, 
            "byteLength" : 228984, 
            "byteOffset" : 2022384, 
            "target" : 34962
        }
    ], 
    "buffers" : [
        {
            "byteLength" : 2251368, 
            "uri" : "spacex2.bin"
        }
    ], 
    "images" : [
        {
            "uri" : "helmet bump.png"
        }, 
        {
            "uri" : "DirtWipes005_OVERLAY_VAR1_HIRES.png"
        }
    ], 
    "materials" : [
        {
            "doubleSided" : true, 
            "name" : "helmet", 
            "pbrMetallicRoughness" : {
                "baseColorFactor" : [
                    0.05951124429702759, 
                    0.05612849444150925, 
                    0.048171836882829666, 
                    1.0
                ], 
                "metallicRoughnessTexture" : {
                    "index" : 0
                }
            }
        }
    ], 
    "meshes" : [
        {
            "name" : "Cube", 
            "primitives" : [
                {
                    "attributes" : {
                        "NORMAL" : 2, 
                        "POSITION" : 1, 
                        "TANGENT" : 3, 
                        "TEXCOORD_0" : 4, 
                        "TEXCOORD_1" : 5
                    }, 
                    "indices" : 0
                }, 
                {
                    "attributes" : {
                        "NORMAL" : 8, 
                        "POSITION" : 7, 
                        "TANGENT" : 9, 
                        "TEXCOORD_0" : 10, 
                        "TEXCOORD_1" : 11
                    }, 
                    "indices" : 6, 
                    "material" : 0
                }
            ]
        }
    ], 
    "nodes" : [
        {
            "mesh" : 0, 
            "name" : "Cube", 
            "rotation" : [
                0.0, 
                0.2588190734386444, 
                -0.0, 
                0.965925931930542
            ], 
            "scale" : [
                1.0145398378372192, 
                1.2367548942565918, 
                1.2367548942565918
            ], 
            "translation" : [
                -4.7655463275956026e-17, 
                -0.21462112665176392, 
                -0.1573888212442398
            ]
        }
    ], 
    "samplers" : [
        {}
    ], 
    "scene" : 0, 
    "scenes" : [
        {
            "name" : "Scene", 
            "nodes" : [
                0
            ]
        }
    ], 
    "textures" : [
        {
            "sampler" : 0, 
            "source" : 0
        }, 
        {
            "sampler" : 0, 
            "source" : 1
        }
    ]
}
