{
    "accessors" : [
        {
            "bufferView" : 0, 
            "componentType" : 5123, 
            "count" : 2292, 
            "max" : [
                466
            ], 
            "min" : [
                0
            ], 
            "type" : "SCALAR"
        }, 
        {
            "bufferView" : 1, 
            "componentType" : 5126, 
            "count" : 467, 
            "max" : [
                1.0, 
                1.0, 
                1.0
            ], 
            "min" : [
                -1.0, 
                -1.0, 
                -1.0
            ], 
            "type" : "VEC3"
        }, 
        {
            "bufferView" : 2, 
            "componentType" : 5126, 
            "count" : 467, 
            "max" : [
                0.9967039823532104, 
                0.9967039823532104, 
                0.9967039823532104
            ], 
            "min" : [
                -0.9967039823532104, 
                -0.9967039823532104, 
                -0.9967039823532104
            ], 
            "type" : "VEC3"
        }, 
        {
            "bufferView" : 3, 
            "componentType" : 5126, 
            "count" : 467, 
            "max" : [
                0.7810451984405518, 
                0.9983500242233276, 
                0.7819039821624756, 
                1.0
            ], 
            "min" : [
                -0.9984760284423828, 
                -0.9984760284423828, 
                -0.7819039821624756, 
                1.0
            ], 
            "type" : "VEC4"
        }, 
        {
            "bufferView" : 4, 
            "componentType" : 5126, 
            "count" : 467, 
            "max" : [
                1.7547789812088013, 
                2.1362571716308594
            ], 
            "min" : [
                -0.7648162245750427, 
                -1.231177806854248
            ], 
            "type" : "VEC2"
        }
    ], 
    "asset" : {
        "generator" : "Khronos Blender glTF 2.0 exporter", 
        "version" : "2.0"
    }, 
    "bufferViews" : [
        {
            "buffer" : 0, 
            "byteLength" : 4584, 
            "byteOffset" : 0, 
            "target" : 34963
        }, 
        {
            "buffer" : 0, 
            "byteLength" : 5604, 
            "byteOffset" : 4584, 
            "target" : 34962
        }, 
        {
            "buffer" : 0, 
            "byteLength" : 5604, 
            "byteOffset" : 10188, 
            "target" : 34962
        }, 
        {
            "buffer" : 0, 
            "byteLength" : 7472, 
            "byteOffset" : 15792, 
            "target" : 34962
        }, 
        {
            "buffer" : 0, 
            "byteLength" : 3736, 
            "byteOffset" : 23264, 
            "target" : 34962
        }
    ], 
    "buffers" : [
        {
            "byteLength" : 27000, 
            "uri" : "untitled.bin"
        }
    ], 
    "images" : [
        {
            "uri" : "FabricModeledCotton001_NRM_3K.png"
        }
    ], 
    "materials" : [
        {
            "name" : "Material.001", 
            "normalTexture" : {
                "index" : 0
            }, 
            "pbrMetallicRoughness" : {
                "metallicFactor" : 0.0, 
                "roughnessFactor" : 0.3469387888908386
            }
        }
    ], 
    "meshes" : [
        {
            "name" : "Cube.003", 
            "primitives" : [
                {
                    "attributes" : {
                        "NORMAL" : 2, 
                        "POSITION" : 1, 
                        "TANGENT" : 3, 
                        "TEXCOORD_0" : 4
                    }, 
                    "indices" : 0, 
                    "material" : 0
                }
            ]
        }
    ], 
    "nodes" : [
        {
            "mesh" : 0, 
            "name" : "Cube", 
            "rotation" : [
                0.09514863789081573, 
                -0.08758676797151566, 
                -0.11009889096021652, 
                0.985471248626709
            ], 
            "scale" : [
                0.6902414560317993, 
                0.6902415156364441, 
                0.6902415752410889
            ], 
            "translation" : [
                0.516689658164978, 
                0.9295250177383423, 
                -0.31686604022979736
            ]
        }
    ], 
    "samplers" : [
        {}
    ], 
    "scene" : 0, 
    "scenes" : [
        {
            "name" : "Scene", 
            "nodes" : [
                0
            ]
        }
    ], 
    "textures" : [
        {
            "sampler" : 0, 
            "source" : 0
        }
    ]
}
